<svg width="40" height="53" viewBox="0 0 40 53" fill="none" xmlns="http://www.w3.org/2000/svg">
<path d="M33.198 27.8146C33.1772 24.0156 34.9063 21.1482 38.4063 19.0365C36.448 16.252 33.4897 14.7199 29.5834 14.4197C25.8855 14.1299 21.8438 16.5625 20.3647 16.5625C18.8022 16.5625 15.2188 14.5232 12.4063 14.5232C6.59383 14.6164 0.416748 19.1297 0.416748 28.3115C0.416748 31.0236 0.916748 33.8255 1.91675 36.717C3.25008 40.516 8.06258 49.8324 13.0834 49.6771C15.7084 49.615 17.5626 47.8242 20.9792 47.8242C24.2917 47.8242 26.0105 49.6771 28.9376 49.6771C34.0001 49.6047 38.3542 41.1371 39.6251 37.3277C32.8334 34.1498 33.198 28.0113 33.198 27.8146ZM27.3022 10.8174C30.1459 7.46348 29.8855 4.40977 29.8022 3.3125C27.2917 3.45742 24.3855 5.01016 22.7292 6.9252C20.9063 8.9748 19.8334 11.5109 20.0626 14.368C22.7813 14.575 25.2605 13.1879 27.3022 10.8174Z" fill="currentColor"/>
</svg>
