<svg width="49" height="49" viewBox="0 0 49 49" fill="none" xmlns="http://www.w3.org/2000/svg">
<g clip-path="url(#clip0_97_41)">
<path d="M35.7291 28.5833C35.1314 30.6626 33.9468 32.5254 32.3173 33.9485C30.6878 35.3717 28.6824 36.2947 26.5416 36.6071C24.8675 36.85 23.1616 36.7521 21.5263 36.3192C19.8909 35.8864 18.3599 35.1276 17.0251 34.0884C15.6904 33.0492 14.5793 31.751 13.7588 30.2717C12.9382 28.7924 12.425 27.1626 12.25 25.48C12.1144 23.7908 12.3308 22.0919 12.8854 20.4907C13.44 18.8894 14.3208 17.4206 15.4721 16.1772C16.6235 14.9338 18.0202 13.9427 19.5742 13.2668C21.1281 12.5908 22.8054 12.2446 24.5 12.25C26.0879 12.2522 27.6608 12.5571 29.1346 13.1483C29.3666 13.2525 29.6292 13.2663 29.8709 13.187C30.1126 13.1077 30.316 12.941 30.4412 12.7196L33.3812 7.30917C33.4445 7.18455 33.4826 7.04866 33.4932 6.9093C33.5038 6.76994 33.4869 6.62984 33.4432 6.49706C33.3996 6.36428 33.3302 6.24142 33.239 6.13553C33.1477 6.02963 33.0365 5.9428 32.9116 5.88C29.7546 4.45065 26.2858 3.84842 22.8317 4.13002C19.3777 4.41162 16.0522 5.56779 13.1684 7.48963C10.2846 9.41147 7.9375 12.0357 6.34808 15.1152C4.75866 18.1947 3.97927 21.6282 4.0833 25.0921C4.2845 30.2369 6.39932 35.1212 10.0135 38.7882C13.6276 42.4553 18.4807 44.6408 23.6221 44.9167C29.0078 45.1555 34.2694 43.2545 38.2589 39.6285C42.2483 36.0024 44.6416 30.9457 44.9166 25.5617C44.9166 25.1533 44.9166 22.8054 44.9166 21.4783C44.9114 21.2092 44.8022 20.9526 44.6119 20.7623C44.4215 20.572 44.1649 20.4627 43.8958 20.4575H25.5208C25.2501 20.4575 24.9904 20.5651 24.799 20.7565C24.6075 20.9479 24.5 21.2076 24.5 21.4783V27.6033C24.5 27.8741 24.6075 28.1337 24.799 28.3252C24.9904 28.5166 25.2501 28.6242 25.5208 28.6242H35.7291" fill="currentColor"/>
</g>
<defs>
<clipPath id="clip0_97_41">
<rect width="49" height="49" fill="white"/>
</clipPath>
</defs>
</svg>
