<svg width="143" height="143" viewBox="0 0 143 143" fill="none" xmlns="http://www.w3.org/2000/svg">
<g clip-path="url(#clip0_694_157)">
<path d="M104.271 17.875C118.656 17.875 130.395 29.2032 131.054 43.4253L131.084 44.6875V89.375C131.084 95.6574 126.223 100.804 120.056 101.259L119.167 101.292H100.1V119.167C100.1 122.457 98.8407 124.8 95.5499 124.8C92.4942 124.8 90.9999 122.2 90.9999 120.25V119.167L90.9999 101.292H23.8337C17.5514 101.292 12.4046 96.4306 11.9497 90.2644L11.917 89.375V44.6875C12.3499 30.55 27.2999 17.9042 37.4673 17.9042L38.7295 17.875H104.271ZM104.271 26.65H53.9499C59.1499 29.25 63.4048 38.0135 63.6999 42.9L63.6999 44.6875L63.6999 93.6H122.85L122.85 43.4253C122.85 35.5277 113.72 27.1543 105.95 26.65H104.271ZM38.7295 26.65C30.5028 26.65 19.4999 36.4608 19.4999 44.6875L19.4999 93.6H55.8999L55.8999 44.6875C55.8999 36.4608 46.9562 26.65 38.7295 26.65ZM41.7087 49.4C44.9993 49.4 47.667 50.3343 47.667 53.625C47.667 55.9 44.8499 57.2 42.8999 57.2H41.7087H35.7503C33.7999 57.2 29.792 56.9157 29.792 53.625C29.792 50.5694 32.4999 49.4 34.4499 49.4H35.7503H41.7087Z" fill="currentColor"/>
</g>
<defs>
<clipPath id="clip0_694_157">
<rect width="143" height="143" fill="white"/>
</clipPath>
</defs>
</svg>
