<svg width="30" height="30" viewBox="0 0 30 30" fill="none" xmlns="http://www.w3.org/2000/svg">
<circle cx="15" cy="15" r="15" fill="#7F766F"/>
<g clip-path="url(#clip0_171_273)">
<path fill-rule="evenodd" clip-rule="evenodd" d="M20.0313 21.1334H9.96931C9.42774 21.1334 9.02782 20.599 9.23209 20.1076C10.1798 17.8352 12.4064 16.5334 14.9999 16.5334C17.5943 16.5334 19.8208 17.8352 20.7686 20.1076C20.9728 20.599 20.5729 21.1334 20.0313 21.1334ZM11.8695 11.9334C11.8695 10.2421 13.2743 8.8667 14.9999 8.8667C16.7264 8.8667 18.1304 10.2421 18.1304 11.9334C18.1304 13.6246 16.7264 15 14.9999 15C13.2743 15 11.8695 13.6246 11.8695 11.9334ZM22.6327 20.8543C22.0638 18.2791 20.2841 16.3785 17.9418 15.516C19.183 14.5369 19.9069 12.9538 19.6408 11.2203C19.3325 9.20935 17.6248 7.60016 15.5634 7.36556C12.7178 7.04126 10.3043 9.21093 10.3043 11.9334C10.3043 13.3824 10.9898 14.6734 12.0589 15.516C9.71574 16.3785 7.93687 18.2791 7.36713 20.8543C7.16052 21.7904 7.93061 22.6667 8.90809 22.6667H21.0918C22.07 22.6667 22.8401 21.7904 22.6327 20.8543Z" fill="#FBFAFA"/>
</g>
<defs>
<clipPath id="clip0_171_273">
<rect width="15.3333" height="15.3333" fill="white" transform="translate(7.33337 7.33337)"/>
</clipPath>
</defs>
</svg>
