<svg width="34" height="34" viewBox="0 0 34 34" fill="none" xmlns="http://www.w3.org/2000/svg">
<path fill-rule="evenodd" clip-rule="evenodd" d="M0.333374 15.3333C0.333634 12.9373 0.907876 10.5762 2.00803 8.44764C3.10818 6.3191 4.70223 4.48508 6.65674 3.09911C8.61125 1.71314 10.8693 0.81555 13.242 0.481478C15.6146 0.147405 18.0328 0.386574 20.294 1.17896C22.5552 1.97135 24.5937 3.2939 26.2388 5.03589C27.884 6.77789 29.0879 8.88864 29.7497 11.1915C30.4116 13.4943 30.5122 15.9221 30.0431 18.2718C29.5739 20.6215 28.5488 22.8246 27.0534 24.6967L33.1784 30.8217C33.482 31.136 33.65 31.557 33.6462 31.994C33.6424 32.431 33.4671 32.849 33.1581 33.158C32.8491 33.467 32.431 33.6423 31.994 33.6461C31.557 33.6499 31.136 33.4819 30.8217 33.1783L24.6967 27.0533C22.4898 28.8167 19.8299 29.921 17.023 30.2392C14.2161 30.5574 11.3765 30.0765 8.83087 28.8519C6.28526 27.6274 4.13717 25.7089 2.63386 23.3173C1.13055 20.9257 0.33313 18.1582 0.333374 15.3333ZM15.3334 3.66667C13.8013 3.66667 12.2842 3.96844 10.8687 4.55474C9.45327 5.14105 8.16714 6.00041 7.08379 7.08376C6.00044 8.16711 5.14108 9.45323 4.55478 10.8687C3.96847 12.2842 3.66671 13.8013 3.66671 15.3333C3.66671 16.8654 3.96847 18.3825 4.55478 19.798C5.14108 21.2134 6.00044 22.4996 7.08379 23.5829C8.16714 24.6663 9.45327 25.5256 10.8687 26.1119C12.2842 26.6982 13.8013 27 15.3334 27C18.4276 27 21.395 25.7708 23.583 23.5829C25.7709 21.395 27 18.4275 27 15.3333C27 12.2391 25.7709 9.27168 23.583 7.08376C21.395 4.89584 18.4276 3.66667 15.3334 3.66667Z" fill="currentColor"/>
</svg>
